:SAMPLES-PER-SECOND 30
:FULLY-SPECIFIED
:DEGREES
607
root  -29.79 39.8574 9.96568 -34.2444 -81.4271 26.3001
RightUpLeg  -20.3338 -23.1191 -3.0927
RightLeg  28.6913 3.71567 1.9843
RightFoot  1.34879 -2.06636 18.5185
RightToes  0.00048216 0.542163 -0.142577
Spine  29.118 -1.50853 -5.1779
Spine1  10.4608 -3.86202 3.03785
HEad  -22.3672 -40.1606 21.742
LeftShoulder1  10.3316 -16.2564 -45.5809
LeftArm  -12.9261 19.0727 -25.6288
LeftForeArm  28.3104 -35.9179 -6.42965
LeftHand  -0.25398 0.0180481 5.50724
RightShoulder  6.08932 10.3301 37.9738
RightArm  4.21563 -16.4202 34.0282
RightForeArm  4.63256 18.5223 5.66511
RightHand  0.00126841 -8.28926 -2.36737
LeftUpLeg  1.06911 16.5288 -5.83543
LeftLeg  17.5742 20.1643 0.394851
LeftFoot  -12.9172 0.135372 4.16994
LeftToes  1.06244e-005 4.65856e-005 -8.18505e-006
608
root  -29.3495 40.1134 9.34046 -32.8738 -82.4091 25.2628
RightUpLeg  -18.9072 -20.1911 -6.65115
RightLeg  31.3078 0.61618 0.1744
RightFoot  -0.165621 -1.51514 15.4102
RightToes  0.00048216 0.542163 -0.142577
Spine  27.4184 -1.46233 -5.49596
Spine1  9.90272 -3.84507 3.03195
HEad  -21.7166 -39.8074 21.2039
LeftShoulder1  10.2204 -16.0736 -45.5095
LeftArm  -11.832 21.132 -25.8693
LeftForeArm  30.0186 -35.3903 -6.19018
LeftHand  -0.25398 0.0180481 5.50724
RightShoulder  5.8953 9.98729 37.6666
RightArm  3.47414 -16.1902 33.7561
RightForeArm  0.717414 20.4188 5.23837
RightHand  0.0400296 -7.45597 -5.03757
LeftUpLeg  0.925663 11.2736 -4.568
LeftLeg  15.0992 25.5643 -0.901831
LeftFoot  -10.9751 0.055176 3.31387
LeftToes  1.06244e-005 4.65856e-005 -8.18505e-006
609
root  -28.9188 40.2494 8.68939 -34.5804 -82.962 27.1101
RightUpLeg  -16.9857 -17.308 -10.7199
RightLeg  33.564 -1.10013 -1.02379
RightFoot  -0.405623 -1.2101 12.5822
RightToes  0.00048216 0.542163 -0.142577
Spine  26.0937 -1.33526 -6.2703
Spine1  9.22128 -3.85245 3.0152
HEad  -21.331 -39.5066 20.8229
LeftShoulder1  10.116 -15.8616 -45.5396
LeftArm  -11.3743 23.0936 -25.8284
LeftForeArm  28.5422 -34.143 -5.95422
LeftHand  -0.25398 0.0180481 5.50724
RightShoulder  5.75059 9.71644 37.4744
RightArm  2.1247 -16.0347 33.4288
RightForeArm  -2.83363 23.1782 5.16095
RightHand  0.0162375 -6.14651 -8.04269
LeftUpLeg  0.720531 8.69129 -3.68695
LeftLeg  13.3529 28.331 -1.77082
LeftFoot  -9.45648 0.0141459 2.57859
LeftToes  1.06244e-005 4.65856e-005 -8.18505e-006
610
root  -28.5034 40.2627 8.0101 -39.9929 -83.0746 32.4946
RightUpLeg  -14.4163 -14.7275 -15.2642
RightLeg  35.1311 -1.80568 -1.6135
RightFoot  -0.251967 -1.17509 12.0545
RightToes  0.00048216 0.542163 -0.142577
Spine  24.888 -1.11071 -7.41781
Spine1  8.78048 -3.80828 2.83814
HEad  -21.3285 -39.1457 20.4738
LeftShoulder1  10.0565 -15.681 -45.7044
LeftArm  -11.218 24.7457 -25.4978
LeftForeArm  26.2509 -32.5487 -5.68615
LeftHand  -0.25398 0.0180481 5.50724
RightShoulder  5.6605 9.53972 37.3762
RightArm  -0.434287 -15.7164 33.0264
RightForeArm  -4.39534 26.2144 5.84642
RightHand  -0.0796512 -4.81492 -10.8048
LeftUpLeg  0.328442 7.93972 -3.15154
LeftLeg  12.7024 29.3538 -2.21038
LeftFoot  -8.53547 0.00808804 1.75842
LeftToes  1.06244e-005 4.65856e-005 -8.18505e-006
611
root  -28.105 40.2174 7.30292 -46.6599 -82.8522 39.1321
RightUpLeg  -11.3524 -12.7077 -19.5833
RightLeg  35.8052 -2.5382 -2.21808
RightFoot  -1.00299 -1.08644 11.8593
RightToes  0.00048216 0.542163 -0.142577
Spine  23.4867 -0.816785 -8.55962
Spine1  8.7737 -3.65014 2.58974
HEad  -21.3695 -38.6137 19.874
LeftShoulder1  10.0101 -15.4889 -45.9631
LeftArm  -10.7897 25.8642 -24.9001
LeftForeArm  24.7933 -30.8029 -5.34557
LeftHand  -0.25398 0.0180481 5.50724
RightShoulder  5.59046 9.38382 37.3584
RightArm  -2.41108 -15.0815 32.6914
RightForeArm  -5.52808 28.9954 6.58223
RightHand  -0.237482 -3.48135 -13.3794
LeftUpLeg  -0.26117 8.19439 -2.73856
LeftLeg  12.7452 29.2231 -2.43952
LeftFoot  -8.08193 0.0339568 0.511141
LeftToes  1.06244e-005 4.65856e-005 -8.18505e-006
612
root  -27.7084 40.1874 6.5736 -52.2541 -82.5803 44.6857
RightUpLeg  -8.00402 -10.9506 -22.8272
RightLeg  35.4251 -4.00364 -3.29798
RightFoot  -1.87898 -0.733601 8.71966
RightToes  0.00048216 0.542163 -0.142577
Spine  22.0747 -0.48763 -9.26903
Spine1  8.95325 -3.31182 2.40517
HEad  -21.1896 -37.771 18.8823
LeftShoulder1  9.91554 -15.2264 -46.1743
LeftArm  -10.3517 26.5007 -24.1897
LeftForeArm  24.0917 -29.0457 -4.97336
LeftHand  -0.25398 0.0180481 5.50724
RightShoulder  5.54241 9.24027 37.4662
RightArm  -3.58454 -14.2433 32.4318
RightForeArm  -6.25226 31.2004 7.17975
RightHand  -0.46474 -2.01426 -15.636
LeftUpLeg  -0.821732 9.13058 -2.21444
LeftLeg  12.7636 28.2704 -2.6233
LeftFoot  -7.55432 0.0726802 -0.818864
LeftToes  1.06244e-005 4.65856e-005 -8.18505e-006
613
root  -27.3007 40.1542 5.80343 -57.0226 -82.4269 49.3891
RightUpLeg  -4.44631 -8.98153 -24.8839
RightLeg  33.6148 -4.77395 -3.65494
RightFoot  -1.62562 -0.447549 5.10524
RightToes  0.00048216 0.542163 -0.142577
Spine  20.8956 -0.126749 -9.48165
Spine1  8.99905 -2.75211 2.0369
HEad  -20.8884 -36.5031 17.5978
LeftShoulder1  9.76172 -14.9385 -46.1676
LeftArm  -10.7062 26.9431 -23.558
LeftForeArm  23.5009 -27.5222 -4.66033
LeftHand  -0.25398 0.0180481 5.50724
RightShoulder  5.51878 9.14159 37.6134
RightArm  -4.21231 -13.4382 32.4023
RightForeArm  -6.40676 32.6934 7.58479
RightHand  -0.769548 -0.319128 -17.5423
LeftUpLeg  -1.5154 10.7521 -1.54725
LeftLeg  12.9738 26.8711 -2.47891
LeftFoot  -6.58927 0.111184 -1.72827
LeftToes  1.06244e-005 4.65856e-005 -8.18505e-006
614
root  -26.8861 40.0639 4.95605 -61.4939 -82.2704 54.0441
RightUpLeg  -0.722174 -6.97213 -26.1717
RightLeg  29.8784 -3.0366 -2.1442
RightFoot  -1.56526 -0.583658 6.75311
RightToes  0.00048216 0.542163 -0.142577
Spine  19.6318 0.268353 -9.57903
Spine1  8.91664 -2.05581 1.33314
HEad  -20.3806 -34.9098 16.0305
LeftShoulder1  9.57236 -14.6954 -45.8676
LeftArm  -11.9139 27.4594 -23.0991
LeftForeArm  22.5654 -26.4434 -4.47212
LeftHand  -0.25398 0.0180481 5.50724
RightShoulder  5.46899 9.0494 37.5395
RightArm  -4.41644 -12.8117 32.8904
RightForeArm  -6.13519 33.3356 7.74618
RightHand  -1.08769 1.2664 -19.0242
LeftUpLeg  -2.83458 12.6287 -0.902094
LeftLeg  13.7825 25.4429 -1.89772
LeftFoot  -5.40752 0.153624 -2.33987
LeftToes  1.06244e-005 4.65856e-005 -8.18505e-006
615
root  -26.4718 39.942 4.0266 -65.1515 -81.9884 58.3126
RightUpLeg  2.9759 -5.79322 -26.7576
RightLeg  24.1758 0.155121 -0.121676
RightFoot  -3.87174 -0.86512 13.0343
RightToes  0.00048216 0.542163 -0.142577
Spine  17.9984 0.658101 -9.92143
Spine1  8.77047 -1.40123 0.726494
HEad  -19.3333 -33.1349 14.0951
LeftShoulder1  9.3581 -14.4729 -45.379
LeftArm  -13.3188 28.1661 -22.7299
LeftForeArm  20.9902 -25.8785 -4.43321
LeftHand  -0.25398 0.0180481 5.50724
RightShoulder  5.37308 8.9209 37.229
RightArm  -3.9925 -12.3772 33.8244
RightForeArm  -5.70322 33.2635 7.70345
RightHand  -1.23557 1.95384 -19.6074
LeftUpLeg  -4.62036 13.911 -0.334473
LeftLeg  14.47 24.3167 -1.47063
LeftFoot  -4.30304 0.214032 -3.05963
LeftToes  1.06244e-005 4.65856e-005 -8.18505e-006
616
root  -26.0397 39.8945 3.07163 -67.6905 -81.8977 61.4978
RightUpLeg  6.22423 -6.74293 -26.2957
RightLeg  17.5458 2.92786 0.667207
RightFoot  -7.72774 -0.605349 16.8965
RightToes  0.00048216 0.542163 -0.142577
Spine  16.6234 0.888389 -9.8569
Spine1  8.41511 -0.84681 0.422642
HEad  -18.0547 -31.0501 12.0421
LeftShoulder1  9.1497 -14.2135 -45.0043
LeftArm  -14.6659 28.891 -22.1302
LeftForeArm  19.0326 -25.8219 -4.52594
LeftHand  -0.25398 0.0180481 5.50724
RightShoulder  5.32463 8.84261 37.1149
RightArm  -2.90308 -12.0311 34.7072
RightForeArm  -5.17117 32.9815 7.59745
RightHand  -1.12364 1.49619 -18.9799
LeftUpLeg  -5.77576 14.3606 0.591929
LeftLeg  13.678 23.9063 -1.79411
LeftFoot  -2.77834 0.310785 -3.91714
LeftToes  1.06244e-005 4.65856e-005 -8.18505e-006
617
root  -25.5432 39.9855 2.16559 -69.5023 -82.6017 63.5448
RightUpLeg  8.22383 -10.7716 -24.783
RightLeg  12.3151 5.97436 0.566812
RightFoot  -10.26 -0.211436 14.8357
RightToes  0.00048216 0.542163 -0.142577
Spine  16.2676 0.742813 -7.85492
Spine1  7.91198 -0.27052 -0.392604
HEad  -17.6075 -28.513 10.2949
LeftShoulder1  9.02621 -13.9532 -45.0613
LeftArm  -16.1803 29.1059 -21.0812
LeftForeArm  17.66 -26.0882 -4.65817
LeftHand  -0.25398 0.0180481 5.50724
RightShoulder  5.41608 8.93595 37.5115
RightArm  -1.61092 -11.5663 35.2393
RightForeArm  -4.50856 32.7854 7.50829
RightHand  -0.927818 0.6937 -17.7314
LeftUpLeg  -5.6267 14.2143 2.45647
LeftLeg  10.9468 24.8554 -2.76976
LeftFoot  -0.0813198 0.449563 -4.55887
LeftToes  1.06244e-005 4.65856e-005 -8.18505e-006
618
root  -24.9575 40.1367 1.32153 -70.3519 -84.1034 64.5104
RightUpLeg  8.18181 -13.7017 -22.4233
RightLeg  10.2944 7.57899 1.14123
RightFoot  -10.5179 -0.148488 11.039
RightToes  0.00048216 0.542163 -0.142577
Spine  16.397 0.189078 -3.80607
Spine1  7.76668 0.34734 -2.37152
HEad  -18.3987 -25.7588 8.66717
LeftShoulder1  9.0205 -13.7743 -45.5158
LeftArm  -17.8017 28.4461 -20.1075
LeftForeArm  17.5636 -26.1986 -4.68773
LeftHand  -0.25398 0.0180481 5.50724
RightShoulder  5.58592 9.15614 38.0762
RightArm  -0.412491 -10.8647 35.55
RightForeArm  -3.92784 32.4092 7.37579
RightHand  -0.815912 0.279932 -16.7179
LeftUpLeg  -5.20246 13.0388 5.0188
LeftLeg  7.4597 26.9914 -3.89736
LeftFoot  3.00187 0.570787 -4.68808
LeftToes  1.06244e-005 4.65856e-005 -8.18505e-006
